<?xml version="1.0" encoding="UTF-8"?>
<!DOCTYPE svg PUBLIC "-//W3C//DTD SVG 1.1//EN" "http://www.w3.org/Graphics/SVG/1.1/DTD/svg11.dtd">
<!-- Creator: CorelDRAW -->
<svg xmlns="http://www.w3.org/2000/svg" xml:space="preserve" width="195.743mm" height="74.5247mm" version="1.1" style="shape-rendering:geometricPrecision; text-rendering:geometricPrecision; image-rendering:optimizeQuality; fill-rule:evenodd; clip-rule:evenodd"
viewBox="0 0 3836.85 1460.8"
 xmlns:xlink="http://www.w3.org/1999/xlink"
 xmlns:xodm="http://www.corel.com/coreldraw/odm/2003">
 <defs>
  <style type="text/css">
   <![CDATA[
    .fil1 {fill:#F0203F}
    .fil0 {fill:white;fill-rule:nonzero}
   ]]>
  </style>
 </defs>
 <g id="Camada_x0020_1">
  <metadata id="CorelCorpID_0Corel-Layer"/>
  <g id="_2433634481808">
   <g>
    <g>
     <g>
      <path class="fil0" d="M1771.67 110.52c-23.18,0 -45.12,4.34 -65.82,13.04 -20.7,8.7 -38.71,20.71 -54.02,36.01 -15.32,15.32 -27.32,33.12 -36.01,53.4 -8.7,20.29 -13.04,42.01 -13.04,65.2l0 57.12 223.53 0 0 110.53 -223.53 0 0 335.29 -110.52 0 0 -502.95c0,-38.91 7.25,-75.13 21.73,-108.66 14.49,-33.53 34.56,-62.92 60.22,-88.18 25.67,-25.25 55.48,-45.11 89.42,-59.6 33.94,-14.5 69.95,-21.73 108.04,-21.73l54.64 0 0 110.52 -54.64 0zm95.62 393.66c0,-38.91 7.25,-75.13 21.74,-108.66 14.49,-33.53 34.35,-62.92 59.6,-88.17 25.25,-25.25 54.85,-45.12 88.79,-59.61 33.94,-14.49 69.96,-21.74 108.04,-21.74 38.91,0 75.13,7.25 108.66,21.74 33.53,14.49 63.13,34.36 88.79,59.61 25.67,25.25 45.74,54.64 60.23,88.17 14.49,33.53 21.74,69.75 21.74,108.66 0,38.08 -7.25,74.1 -21.74,108.04 -14.49,33.94 -34.56,63.75 -60.23,89.42 -25.66,25.66 -55.26,45.74 -88.79,60.22 -33.53,14.49 -69.75,21.74 -108.66,21.74 -38.09,0 -74.1,-7.25 -108.04,-21.74 -33.94,-14.49 -63.54,-34.56 -88.79,-60.22 -25.25,-25.67 -45.11,-55.48 -59.6,-89.42 -14.49,-33.94 -21.74,-69.96 -21.74,-108.04zm109.28 0c0,23.18 4.34,45.12 13.04,65.82 8.7,20.7 20.71,38.71 36.01,54.02 15.32,15.31 33.33,27.31 54.02,36.01 20.7,8.69 42.64,13.04 65.82,13.04 23.18,0 45.11,-4.35 65.82,-13.04 20.7,-8.7 38.7,-20.7 54.02,-36.01 15.32,-15.32 27.32,-33.33 36.01,-54.02 8.69,-20.7 13.04,-42.64 13.04,-65.82 0,-23.18 -4.36,-44.91 -13.04,-65.2 -8.69,-20.28 -20.7,-38.08 -36.01,-53.39 -15.32,-15.32 -33.32,-27.32 -54.02,-36.01 -20.7,-8.69 -42.64,-13.04 -65.82,-13.04 -23.18,0 -45.12,4.35 -65.82,13.04 -20.7,8.69 -38.71,20.7 -54.02,36.01 -15.31,15.32 -27.31,33.11 -36.01,53.39 -8.69,20.28 -13.04,42.02 -13.04,65.2zm1044.39 -280.66l0 278.17c0,38.09 -7.25,74.1 -21.74,108.04 -14.49,33.94 -34.56,63.75 -60.23,89.42 -25.66,25.66 -55.26,45.74 -88.79,60.22 -33.53,14.49 -69.75,21.74 -108.66,21.74 -38.09,0 -74.1,-7.25 -108.04,-21.74 -33.94,-14.49 -63.55,-34.56 -88.8,-60.22 -25.25,-25.67 -45.11,-55.47 -59.6,-89.42 -14.49,-33.94 -21.74,-69.95 -21.74,-108.04l0 -278.17 110.52 0 0 278.17c0,23.18 4.35,45.12 13.04,65.82 8.69,20.7 20.7,38.71 36.01,54.02 15.31,15.32 33.11,27.32 53.39,36.01 20.28,8.7 42.02,13.04 65.2,13.04 23.18,0 45.11,-4.35 65.82,-13.04 20.7,-8.69 38.7,-20.7 54.02,-36.01 15.32,-15.31 27.32,-33.32 36.01,-54.02 8.7,-20.7 13.04,-42.64 13.04,-65.82l0 -278.17 110.52 0zm367.58 0l0 110.52 -55.88 0c-23.18,0 -44.91,4.35 -65.2,13.04 -20.29,8.69 -38.09,20.7 -53.4,36.01 -15.32,15.32 -27.32,33.11 -36.01,53.39 -8.7,20.28 -13.04,42.02 -13.04,65.2l0 279.42 -111.77 0 0 -279.42c0,-38.91 7.25,-75.13 21.74,-108.66 14.49,-33.53 34.56,-62.92 60.22,-88.17 25.67,-25.26 55.48,-45.12 89.42,-59.61 33.94,-14.49 69.95,-21.74 108.04,-21.74l55.88 0z"/>
     </g>
     <path class="fil0" d="M2217.49 901.97c38.91,0 75.14,7.25 108.66,21.74 33.53,14.49 63.13,34.35 88.79,59.61 25.66,25.25 45.74,54.64 60.23,88.17 14.49,33.53 21.73,69.75 21.73,108.66l0 279.42 -110.52 0 0 -279.42c0,-23.18 -4.35,-44.91 -13.04,-65.2 -8.69,-20.28 -20.7,-38.08 -36.01,-53.39 -15.32,-15.32 -33.32,-27.32 -54.03,-36.01 -20.7,-8.7 -42.63,-13.04 -65.82,-13.04 -23.18,0 -44.91,4.35 -65.19,13.04 -20.28,8.69 -38.08,20.7 -53.4,36.01 -15.32,15.32 -27.32,33.11 -36.01,53.39 -8.69,20.28 -13.04,42.02 -13.04,65.2l0 279.42 -110.52 0 0 -279.42c0,-23.18 -4.36,-44.91 -13.04,-65.2 -8.69,-20.28 -20.7,-38.08 -36.01,-53.39 -15.32,-15.32 -33.32,-27.32 -54.02,-36.01 -20.7,-8.7 -42.64,-13.04 -65.82,-13.04 -23.19,0 -44.91,4.35 -65.2,13.04 -20.29,8.69 -38.09,20.7 -53.4,36.01 -15.31,15.32 -27.31,33.11 -36.01,53.39 -8.69,20.28 -13.04,42.02 -13.04,65.2l0 279.42 -110.52 0 0 -279.42c0,-38.91 7.25,-75.13 21.74,-108.66 14.49,-33.53 34.35,-62.92 59.6,-88.17 25.25,-25.26 54.85,-45.12 88.79,-59.61 33.94,-14.49 69.96,-21.74 108.04,-21.74 46.36,0 88.79,10.14 127.28,30.43 38.5,20.28 70.59,47.81 96.25,82.58 25.66,-34.77 57.95,-62.3 96.87,-82.58 38.91,-20.29 81.13,-30.43 126.66,-30.43zm320.39 0l109.28 0 0 557.59 -109.28 0 0 -557.59zm145.29 279.42c0,-38.91 7.25,-75.13 21.74,-108.66 14.49,-33.53 34.35,-62.91 59.6,-88.17 25.25,-25.25 54.85,-45.12 88.8,-59.61 33.94,-14.49 69.95,-21.73 108.04,-21.73 38.91,0 75.13,7.25 108.66,21.73 33.53,14.49 63.12,34.36 88.79,59.61 25.67,25.25 45.74,54.64 60.23,88.17 14.49,33.53 21.74,69.75 21.74,108.66l0 279.42 -110.52 0 0 -279.42c0,-23.18 -4.35,-44.91 -13.04,-65.2 -8.69,-20.28 -20.7,-38.08 -36.01,-53.39 -15.32,-15.32 -33.32,-27.32 -54.02,-36.01 -20.7,-8.69 -42.64,-13.04 -65.82,-13.04 -23.18,0 -44.91,4.35 -65.2,13.04 -20.28,8.69 -38.09,20.69 -53.4,36.01 -15.31,15.32 -27.31,33.11 -36.01,53.39 -8.69,20.29 -13.04,42.02 -13.04,65.2l0 279.42 -110.52 0 0 -279.42zm1153.68 -502.94l0 501.7c0,38.09 -7.25,74.1 -21.74,108.04 -14.49,33.94 -34.35,63.75 -59.61,89.42 -25.25,25.66 -54.85,45.74 -88.79,60.22 -33.94,14.49 -69.96,21.74 -108.04,21.74 -38.08,0 -74.1,-7.25 -108.04,-21.74 -33.94,-14.49 -63.75,-34.56 -89.42,-60.22 -25.66,-25.67 -45.74,-55.47 -60.22,-89.42 -14.49,-33.94 -21.74,-69.95 -21.74,-108.04 0,-38.91 7.25,-75.13 21.74,-108.66 14.49,-33.53 34.56,-62.92 60.22,-88.17 25.67,-25.26 55.48,-45.12 89.42,-59.61 33.94,-14.49 69.96,-21.74 108.04,-21.74l167.65 0 0 -223.53 110.52 0zm-278.17 670.59c23.18,0 44.91,-4.35 65.2,-13.04 20.28,-8.69 38.08,-20.7 53.39,-36.01 15.32,-15.31 27.32,-33.32 36.01,-54.02 8.7,-20.7 13.04,-42.64 13.04,-65.82l0 -167.65 -167.65 0c-23.18,0 -45.12,4.35 -65.82,13.04 -20.7,8.69 -38.71,20.7 -54.02,36.01 -15.32,15.32 -27.32,33.11 -36.01,53.39 -8.7,20.28 -13.04,42.02 -13.04,65.2 0,23.18 4.35,45.12 13.04,65.82 8.69,20.7 20.7,38.71 36.01,54.02 15.31,15.32 33.32,27.32 54.02,36.01 20.7,8.7 42.64,13.04 65.82,13.04z"/>
    </g>
   </g>
   <g>
    <path class="fil1" d="M79.35 206.82l1149.78 0c43.65,0 79.35,35.71 79.35,79.35 0,406.37 0,682.76 0,1089.13 0,61.66 -57.27,72.17 -92.23,37.2l-256.17 -192.61 -880.72 0c-43.65,0 -79.35,-35.7 -79.35,-79.35l0 -854.38c0,-43.64 35.7,-79.35 79.35,-79.35z"/>
    <g>
     <path class="fil0" d="M868.62 421.81c37.43,0 72.27,6.97 104.51,20.9 32.25,13.93 60.72,33.04 85.4,57.33 24.68,24.29 44,52.55 57.93,84.8 13.93,32.25 20.9,67.09 20.9,104.51l0 268.73 -106.3 0 0 -268.73c0,-22.29 -4.18,-43.2 -12.54,-62.71 -8.36,-19.51 -19.9,-36.62 -34.64,-51.35 -14.73,-14.73 -32.05,-26.28 -51.96,-34.64 -19.9,-8.37 -41,-12.55 -63.3,-12.55 -22.29,0 -43.2,4.18 -62.7,12.55 -19.51,8.36 -36.63,19.9 -51.36,34.64 -14.73,14.73 -26.28,31.84 -34.64,51.35 -8.36,19.51 -12.54,40.41 -12.54,62.71l0 268.73 -106.3 0 0 -268.73c0,-22.29 -4.19,-43.2 -12.55,-62.71 -8.36,-19.51 -19.9,-36.62 -34.64,-51.35 -14.73,-14.73 -32.05,-26.28 -51.95,-34.64 -19.91,-8.37 -41.01,-12.55 -63.3,-12.55 -22.3,0 -43.2,4.18 -62.71,12.55 -19.51,8.36 -36.63,19.9 -51.36,34.64 -14.72,14.73 -26.27,31.84 -34.64,51.35 -8.36,19.51 -12.54,40.41 -12.54,62.71l0 268.73 -106.3 0 0 -268.73c0,-37.42 6.97,-72.26 20.9,-104.51 13.93,-32.25 33.04,-60.51 57.32,-84.8 24.28,-24.29 52.75,-43.4 85.4,-57.33 32.64,-13.93 67.28,-20.9 103.91,-20.9 44.58,0 85.39,9.75 122.42,29.26 37.03,19.51 67.89,45.98 92.57,79.42 24.68,-33.44 55.73,-59.91 93.16,-79.42 37.42,-19.51 78.03,-29.26 121.82,-29.26z"/>
     <path class="fil0" d="M439.85 528.1c-22.29,0 -43.41,4.18 -63.3,12.54 -19.9,8.36 -37.23,19.91 -51.95,34.64 -14.73,14.73 -26.28,31.85 -34.64,51.36 -8.37,19.51 -12.55,40.4 -12.55,62.71l0 54.94 214.98 0 0 106.31 -214.98 0 0 107.49 -106.3 0 0 -268.73c0,-37.43 6.97,-72.26 20.9,-104.51 13.93,-32.25 33.24,-60.52 57.92,-84.8 24.69,-24.28 53.35,-43.39 86,-57.32 32.64,-13.94 67.28,-20.9 103.91,-20.9l0 106.3z"/>
    </g>
   </g>
  </g>
 </g>
</svg>
